<svg width="64" height="64" viewBox="0 0 64 64" fill="none" xmlns="http://www.w3.org/2000/svg">
<rect width="64" height="64" rx="32" fill="white"/>
<path fill-rule="evenodd" clip-rule="evenodd" d="M29.4999 10.1701C18.543 11.4111 10.0293 20.7113 10.0293 32C10.0293 35.66 10.9243 39.111 12.5073 42.1461C12.6843 41.5865 12.8857 41.0338 13.1111 40.4897C14.1385 38.0092 15.6445 35.7554 17.543 33.8569C19.4415 31.9584 21.6954 30.4524 24.1759 29.4249C26.6564 28.3975 29.315 27.8686 31.9999 27.8686C34.6848 27.8686 37.3434 28.3975 39.8239 29.4249C42.3044 30.4524 44.5583 31.9584 46.4568 33.8569C48.3553 35.7554 49.8612 38.0092 50.8887 40.4897C51.1141 41.0338 51.3154 41.5865 51.4925 42.1461C53.0755 39.111 53.9705 35.66 53.9705 32C53.9705 20.7113 45.4567 11.4111 34.4999 10.1701V20.5804C34.4999 21.9611 33.3806 23.0804 31.9999 23.0804C30.6192 23.0804 29.4999 21.9611 29.4999 20.5804V10.1701ZM47.4303 47.64C47.3518 45.8418 46.9594 44.0693 46.2693 42.4031C45.4931 40.5293 44.3554 38.8266 42.9212 37.3924C41.487 35.9582 39.7844 34.8205 37.9105 34.0443C36.0366 33.2681 34.0282 32.8686 31.9999 32.8686C29.9716 32.8686 27.9632 33.2681 26.0893 34.0443C24.2154 34.8205 22.5128 35.9582 21.0786 37.3924C19.6443 38.8266 18.5067 40.5293 17.7305 42.4031C17.0403 44.0693 16.648 45.8418 16.5695 47.64C18.1132 49.1631 19.8813 50.4594 21.8197 51.4748C21.5099 50.476 21.343 49.4144 21.343 48.3137C21.343 42.4281 26.1143 37.6569 31.9999 37.6569C37.8855 37.6569 42.6567 42.4281 42.6567 48.3137C42.6567 49.4144 42.4899 50.476 42.1801 51.4748C44.1185 50.4594 45.8866 49.1631 47.4303 47.64ZM31.9999 53.9706C35.1241 53.9706 37.6567 51.4379 37.6567 48.3137C37.6567 45.1895 35.1241 42.6569 31.9999 42.6569C28.8757 42.6569 26.343 45.1895 26.343 48.3137C26.343 51.4379 28.8757 53.9706 31.9999 53.9706ZM31.9999 58.9706C46.8953 58.9706 58.9705 46.8955 58.9705 32C58.9705 17.1046 46.8953 5.02942 31.9999 5.02942C17.1044 5.02942 5.0293 17.1046 5.0293 32C5.0293 46.8955 17.1044 58.9706 31.9999 58.9706Z" fill="black"/>
</svg>
