<svg width="24" height="24" viewBox="0 0 24 24" fill="none" xmlns="http://www.w3.org/2000/svg">
<path d="M4 6H15M15 6C15 7.10457 15.8954 8 17 8C18.1046 8 19 7.10457 19 6M15 6C15 4.89543 15.8954 4 17 4C18.1046 4 19 4.89543 19 6M19 6H20M4 18H13M13 18C13 19.1046 13.8954 20 15 20C16.1046 20 17 19.1046 17 18M13 18C13 16.8954 13.8954 16 15 16C16.1046 16 17 16.8954 17 18M17 18H20M10 12H20M10 12C10 13.1046 9.10457 14 8 14C6.89543 14 6 13.1046 6 12M10 12C10 10.8954 9.10457 10 8 10C6.89543 10 6 10.8954 6 12M4 12H6" stroke="black" stroke-width="2" stroke-linecap="round" stroke-linejoin="round"/>
</svg>
