<svg width="24" height="24" viewBox="0 0 24 24" fill="none" xmlns="http://www.w3.org/2000/svg">
<path d="M5.60923 16.0159C4.16831 16.0159 3.00021 17.184 3.00021 18.6249C3.00021 20.0658 4.16831 21.2339 5.60923 21.2339C7.05015 21.2339 8.21825 20.0658 8.21825 18.6249C8.21825 17.184 7.05015 16.0159 5.60923 16.0159ZM5.60923 16.0159L5.60902 8.21804M15.0961 3.00006L11.4336 6.66258M11.4336 6.66258L15.0961 10.3251M11.4336 6.66258H14.7567C17.8112 6.66263 18.391 8.40198 18.391 10.1413L18.391 15.9391M18.391 15.9391C16.9501 15.9391 15.782 17.1072 15.782 18.5481C15.782 19.9891 16.9501 21.1572 18.391 21.1572C19.8319 21.1572 21 19.9891 21 18.5481C21 17.1072 19.8319 15.9391 18.391 15.9391ZM5.60902 8.21804C7.04994 8.21804 8.21804 7.04995 8.21804 5.60902C8.21804 4.1681 7.04995 3 5.60902 3C4.1681 3 3 4.1681 3 5.60902C3 7.04995 4.1681 8.21804 5.60902 8.21804Z" stroke="black" stroke-width="2" stroke-linecap="round" stroke-linejoin="round"/>
</svg>
