<svg width="24" height="24" viewBox="0 0 24 24" fill="none" xmlns="http://www.w3.org/2000/svg">
<path d="M3 9V6C3 5.44772 3.44772 5 4 5H20C20.5523 5 21 5.44772 21 6V18C21 18.5523 20.5523 19 20 19H13M10 19C10 18.0807 9.81894 17.1705 9.46716 16.3212C9.11537 15.4719 8.59976 14.7003 7.94975 14.0503C7.29974 13.4002 6.52806 12.8846 5.67878 12.5328C4.8295 12.1811 3.91925 12 3 12M7 19C7 18.4747 6.89654 17.9546 6.69552 17.4693C6.4945 16.984 6.19986 16.543 5.82843 16.1716C5.45699 15.8001 5.01604 15.5055 4.53073 15.3045C4.04543 15.1035 3.52529 15 3 15M4 19C4 18.8687 3.97413 18.7386 3.92388 18.6173C3.87363 18.496 3.79997 18.3858 3.70711 18.2929C3.61425 18.2 3.50401 18.1264 3.38268 18.0761C3.26136 18.0259 3.13132 18 3 18" stroke="black" stroke-width="2" stroke-linecap="round" stroke-linejoin="round"/>
</svg>
