<svg width="24" height="24" viewBox="0 0 24 24" fill="none" xmlns="http://www.w3.org/2000/svg">
<path d="M10.3608 2.8356C10.4412 2.35341 10.8584 2 11.3472 2H12.653C13.1418 2 13.559 2.35341 13.6394 2.8356L13.8701 4.21973C14.6969 4.41774 15.4739 4.74415 16.1787 5.1767L17.3212 4.36065C17.719 4.07652 18.2639 4.12162 18.6095 4.46728L19.5328 5.39058C19.8785 5.73624 19.9236 6.28114 19.6395 6.67893L18.8234 7.82139C19.256 8.52622 19.5824 9.30322 19.7804 10.1301L21.1644 10.3608C21.6466 10.4412 22 10.8583 22 11.3472V12.6529C22 13.1418 21.6466 13.559 21.1644 13.6393L19.7804 13.87C19.5824 14.6969 19.2559 15.4739 18.8234 16.1787L19.6393 17.3211C19.9235 17.7189 19.8784 18.2638 19.5327 18.6094L18.6094 19.5327C18.2638 19.8784 17.7189 19.9235 17.3211 19.6393L16.1787 18.8233C15.4739 19.2559 14.6969 19.5823 13.8701 19.7803L13.6394 21.1644C13.559 21.6466 13.1418 22 12.653 22H11.3472C10.8584 22 10.4412 21.6466 10.3608 21.1644L10.1302 19.7803C9.30328 19.5823 8.52632 19.2558 7.82151 18.8233L6.67904 19.6393C6.28126 19.9235 5.73636 19.8784 5.3907 19.5327L4.4674 18.6094C4.12173 18.2638 4.07664 17.7189 4.36077 17.3211L5.17681 16.1786C4.74428 15.4738 4.41788 14.6969 4.21986 13.87L2.8356 13.6393C2.35341 13.559 2 13.1418 2 12.6529V11.3472C2 10.8583 2.35341 10.4411 2.8356 10.3608L4.21984 10.1301C4.41784 9.30323 4.74423 8.52627 5.17676 7.82148L4.36065 6.67893C4.07652 6.28114 4.12162 5.73624 4.46728 5.39058L5.39058 4.46728C5.73624 4.12162 6.28114 4.07652 6.67893 4.36065L7.82144 5.17674C8.52627 4.74417 9.30326 4.41775 10.1302 4.21973L10.3608 2.8356Z" stroke="black" stroke-width="2" stroke-linejoin="round"/>
<path d="M16.0001 12C16.0001 14.2091 14.2093 16 12.0001 16C9.79097 16 8.00011 14.2091 8.00011 12C8.00011 9.79086 9.79097 8 12.0001 8C14.2093 8 16.0001 9.79086 16.0001 12Z" stroke="black" stroke-width="2" stroke-linejoin="round"/>
</svg>
