<svg width="24" height="24" viewBox="0 0 24 24" fill="none" xmlns="http://www.w3.org/2000/svg">
<path d="M3 17H2.5C2.22386 17 2 16.7761 2 16.5V4C2 2.89543 2.89543 2 4 2H17.5312C17.7901 2 18 2.20987 18 2.46875V2.9375M12 11.2574L14.1213 13.3787M14.1213 13.3787L16.2426 15.5M14.1213 13.3787L16.2426 11.2574M14.1213 13.3787L12 15.5M9 21H19C20.6569 21 22 19.6569 22 18V9C22 7.34315 20.6569 6 19 6H9C7.34315 6 6 7.34315 6 9V18C6 19.6569 7.34315 21 9 21Z" stroke="black" stroke-width="2" stroke-linecap="round" stroke-linejoin="round"/>
</svg>
