<svg width="24" height="24" viewBox="0 0 24 24" fill="none" xmlns="http://www.w3.org/2000/svg">
<path d="M7.41318 16.1501C7.41318 13.3755 7.41319 13.1491 7.41319 11.5404L7.41305 7.8261M7.41318 16.1501C6.08049 16.1501 5.00026 17.2305 5.00026 18.5632C5.00026 19.8959 6.08062 20.9762 7.41331 20.9762C8.746 20.9762 9.82636 19.8959 9.82636 18.5632C9.82636 17.2305 8.74587 16.1501 7.41318 16.1501ZM7.41318 16.1501L7.41311 15.4122C7.41311 13.8035 8.91366 12.4507 11.7387 12.4506L14.6254 12.4506C16.234 12.4506 17.5869 10.95 17.5869 8.12499V7.82614M7.41305 7.8261C8.74574 7.8261 9.8261 6.74574 9.8261 5.41305C9.8261 4.08036 8.74574 3 7.41305 3C6.08036 3 5 4.08036 5 5.41305C5 6.74574 6.08036 7.8261 7.41305 7.8261ZM17.5869 7.82614C16.2543 7.82614 15.1739 6.74578 15.1739 5.41309C15.1739 4.0804 16.2543 3.00004 17.5869 3.00004C18.9196 3.00004 20 4.0804 20 5.41309C20 6.74578 18.9196 7.82614 17.5869 7.82614Z" stroke="black" stroke-width="2" stroke-linejoin="round"/>
</svg>
