<svg width="24" height="24" viewBox="0 0 24 24" fill="none" xmlns="http://www.w3.org/2000/svg">
<path d="M21 12C21 16.9706 16.9706 21 12 21C7.02944 21 3 16.9706 3 12M21 12C21 7.02944 16.9706 3 12 3C7.02944 3 3 7.02944 3 12M21 12H3M12.0315 20.9724C10.7675 19.8497 9.75489 18.4727 9.06013 16.9315C8.36538 15.3902 8.00412 13.7196 8.00003 12.029C7.99595 10.3384 8.34913 8.66604 9.03643 7.12147C9.72372 5.5769 10.7296 4.19498 11.9882 3.06626M11.9685 20.9724C13.2325 19.8497 14.2451 18.4727 14.9399 16.9315C15.6346 15.3902 15.9959 13.7196 16 12.029C16.004 10.3384 15.6509 8.66604 14.9636 7.12147C14.2763 5.5769 13.2704 4.19498 12.0118 3.06626" stroke="black" stroke-width="2" stroke-linecap="round" stroke-linejoin="round"/>
</svg>
