<svg width="24" height="24" viewBox="0 0 24 24" fill="none" xmlns="http://www.w3.org/2000/svg">
<path d="M12 22C11.4477 22 11 21.5523 11 21C11 20.4477 11.4477 20 12 20V22ZM12 4C11.4477 4 11 3.55228 11 3C11 2.44772 11.4477 2 12 2V4ZM9.17157 16.2426C8.78105 16.6332 8.14788 16.6332 7.75736 16.2426C7.36683 15.8521 7.36683 15.219 7.75736 14.8284L9.17157 16.2426ZM7.75736 9.17157C7.36683 8.78105 7.36683 8.14788 7.75736 7.75736C8.14788 7.36684 8.78105 7.36684 9.17157 7.75736L7.75736 9.17157ZM12 12L12.7071 11.2929C13.0976 11.6834 13.0976 12.3166 12.7071 12.7071L12 12ZM12 20C16.4183 20 20 16.4183 20 12H22C22 17.5228 17.5228 22 12 22V20ZM20 12C20 7.58172 16.4183 4 12 4V2C17.5228 2 22 6.47715 22 12H20ZM11.2929 12.7071L7.75736 9.17157L9.17157 7.75736L12.7071 11.2929L11.2929 12.7071ZM12.7071 12.7071L9.17157 16.2426L7.75736 14.8284L11.2929 11.2929L12.7071 12.7071Z" fill="#FF0000"/>
</svg>
