<svg width="24" height="24" viewBox="0 0 24 24" fill="none" xmlns="http://www.w3.org/2000/svg">
<path d="M20 16C18.7318 14.8263 17.7259 13.4329 17.0396 11.8994C16.3532 10.3659 16 8.72235 16 7.0625C16 6.529 15.8965 6.00073 15.6955 5.50785C15.4945 5.01496 15.1999 4.56712 14.8284 4.18988C14.457 3.81264 14.016 3.5134 13.5307 3.30924C13.0454 3.10508 12.5253 3 12 3C11.4747 3 10.9546 3.10508 10.4693 3.30924C9.98396 3.5134 9.54301 3.81264 9.17157 4.18988C8.9066 4.459 8.6807 4.76405 8.5 5.09575M15 17.5C15 17.8283 14.9224 18.1534 14.7716 18.4567C14.6209 18.76 14.3999 19.0356 14.1213 19.2678C13.8427 19.4999 13.512 19.6841 13.1481 19.8097C12.7841 19.9353 12.394 20 12 20C11.606 20 11.2159 19.9353 10.8519 19.8097C10.488 19.6841 10.1573 19.4999 9.87868 19.2678C9.6001 19.0356 9.37913 18.76 9.22836 18.4567C9.0776 18.1534 9 17.8283 9 17.5M16 16H4C5.26816 14.8263 6.27411 13.4329 6.96043 11.8994C7.3076 11.1237 7.56954 10.3199 7.74365 9.5C7.84877 9.00495 7.92188 8.50406 7.96238 8M2.5 2.5L21 21" stroke="black" stroke-width="2" stroke-linecap="round" stroke-linejoin="round"/>
</svg>
