<svg width="24" height="24" viewBox="0 0 24 24" fill="none" xmlns="http://www.w3.org/2000/svg">
<path d="M15 15V16H16V15H15ZM14.2928 15.6468C14.6834 16.0373 15.3165 16.0373 15.707 15.6468C16.0976 15.2562 16.0976 14.6231 15.707 14.2326L14.2928 15.6468ZM10.1916 8.71712C9.80109 8.3266 9.16793 8.3266 8.7774 8.71712C8.38688 9.10764 8.38688 9.74081 8.7774 10.1313L10.1916 8.71712ZM14 9V15H16V9H14ZM15 14H9V16H15V14ZM15.707 14.2326L10.1916 8.71712L8.7774 10.1313L14.2928 15.6468L15.707 14.2326ZM20 12C20 16.4183 16.4183 20 12 20V22C17.5228 22 22 17.5228 22 12H20ZM12 20C7.58172 20 4 16.4183 4 12H2C2 17.5228 6.47715 22 12 22V20ZM4 12C4 7.58172 7.58172 4 12 4V2C6.47715 2 2 6.47715 2 12H4ZM12 4C16.4183 4 20 7.58172 20 12H22C22 6.47715 17.5228 2 12 2V4Z" fill="black"/>
</svg>
