<svg width="24" height="24" viewBox="0 0 24 24" fill="none" xmlns="http://www.w3.org/2000/svg">
<path d="M9 15H8V16H9V15ZM8.29295 14.2326C7.90243 14.6231 7.90243 15.2563 8.29295 15.6468C8.68348 16.0373 9.31664 16.0373 9.70716 15.6468L8.29295 14.2326ZM15.2226 10.1314C15.6131 9.74084 15.6131 9.10767 15.2226 8.71715C14.8321 8.32662 14.1989 8.32662 13.8084 8.71715L15.2226 10.1314ZM8 9.00003V15H10V9.00003H8ZM9 16H15V14H9V16ZM9.70716 15.6468L15.2226 10.1314L13.8084 8.71715L8.29295 14.2326L9.70716 15.6468ZM20 12C20 16.4183 16.4183 20 12 20V22C17.5228 22 22 17.5228 22 12H20ZM12 20C7.58172 20 4 16.4183 4 12H2C2 17.5228 6.47715 22 12 22V20ZM4 12C4 7.58172 7.58172 4 12 4V2C6.47715 2 2 6.47715 2 12H4ZM12 4C16.4183 4 20 7.58172 20 12H22C22 6.47715 17.5228 2 12 2V4Z" fill="black"/>
</svg>
