<svg width="24" height="24" viewBox="0 0 24 24" fill="none" xmlns="http://www.w3.org/2000/svg">
<path d="M15.8032 3.7071C16.1937 3.31657 16.1937 2.68341 15.8032 2.29289C15.4126 1.90237 14.7795 1.90237 14.3889 2.2929L15.8032 3.7071ZM11.4336 6.66252L10.7265 5.95542C10.336 6.34594 10.336 6.9791 10.7265 7.36963L11.4336 6.66252ZM14.389 11.0321C14.7795 11.4227 15.4127 11.4227 15.8032 11.0321C16.1937 10.6416 16.1937 10.0085 15.8032 9.61793L14.389 11.0321ZM14.7567 6.66252L14.7567 5.66252H14.7567V6.66252ZM18.391 10.1412L17.391 10.1412L17.391 10.1412L18.391 10.1412ZM8.19684 20.45C7.80631 20.8405 7.80632 21.4737 8.19685 21.8642C8.58737 22.2547 9.22054 22.2547 9.61106 21.8642L8.19684 20.45ZM12.5664 17.4946L13.2735 18.2017C13.664 17.8112 13.664 17.178 13.2735 16.7875L12.5664 17.4946ZM9.611 13.125C9.22047 12.7344 8.58731 12.7344 8.19678 13.125C7.80626 13.5155 7.80626 14.1486 8.19678 14.5392L9.611 13.125ZM9.24328 17.4946L9.24327 18.4946H9.24328V17.4946ZM5.60903 14.0159L6.60903 14.0159L6.60903 14.0159L5.60903 14.0159ZM14.3889 2.2929L10.7265 5.95542L12.1407 7.36962L15.8032 3.7071L14.3889 2.2929ZM10.7265 7.36963L14.389 11.0321L15.8032 9.61793L12.1407 5.95541L10.7265 7.36963ZM14.7567 7.66252C16.0946 7.66254 16.6654 8.03638 16.9413 8.37794C17.2519 8.76254 17.391 9.34927 17.391 10.1412H19.391C19.391 9.19387 19.2402 8.04127 18.4972 7.12136C17.7196 6.15841 16.4733 5.66255 14.7567 5.66252L14.7567 7.66252ZM17.391 10.1412L17.391 15.9391L19.391 15.9391L19.391 10.1412L17.391 10.1412ZM20 18.5481C20 19.4367 19.2796 20.1571 18.391 20.1571V22.1571C20.3842 22.1571 22 20.5413 22 18.5481H20ZM18.391 20.1571C17.5023 20.1571 16.782 19.4367 16.782 18.5481H14.782C14.782 20.5413 16.3978 22.1571 18.391 22.1571V20.1571ZM16.782 18.5481C16.782 17.6594 17.5023 16.9391 18.391 16.9391V14.9391C16.3978 14.9391 14.782 16.5549 14.782 18.5481H16.782ZM18.391 16.9391C19.2796 16.9391 20 17.6594 20 18.5481H22C22 16.5549 20.3842 14.9391 18.391 14.9391V16.9391ZM11.4336 7.66252H14.7567V5.66252H11.4336V7.66252ZM9.61106 21.8642L13.2735 18.2017L11.8593 16.7875L8.19684 20.45L9.61106 21.8642ZM13.2735 16.7875L9.611 13.125L8.19678 14.5392L11.8593 18.2017L13.2735 16.7875ZM9.2433 16.4946C7.90538 16.4946 7.33455 16.1207 7.05871 15.7792C6.74812 15.3946 6.60903 14.8078 6.60903 14.0159L4.60903 14.0159C4.60903 14.9632 4.75984 16.1158 5.50275 17.0357C6.28042 17.9987 7.52672 18.4946 9.24327 18.4946L9.2433 16.4946ZM6.60903 14.0159L6.60902 8.21804L4.60902 8.21805L4.60903 14.0159L6.60903 14.0159ZM4 5.60902C4 4.72038 4.72038 4 5.60902 4L5.60902 2C3.61581 2 2 3.61581 2 5.60902L4 5.60902ZM5.60902 4C6.49766 4 7.21804 4.72038 7.21804 5.60902L9.21804 5.60902C9.21804 3.61581 7.60223 2 5.60902 2L5.60902 4ZM7.21804 5.60902C7.21804 6.49766 6.49766 7.21804 5.60902 7.21804L5.60902 9.21804C7.60223 9.21804 9.21804 7.60223 9.21804 5.60902L7.21804 5.60902ZM5.60902 7.21804C4.72038 7.21804 4 6.49766 4 5.60902L2 5.60902C2 7.60223 3.61581 9.21804 5.60902 9.21804L5.60902 7.21804ZM12.5664 16.4946H9.24328V18.4946H12.5664V16.4946Z" fill="black"/>
</svg>
