<svg width="24" height="24" viewBox="0 0 24 24" fill="none" xmlns="http://www.w3.org/2000/svg">
<path d="M21 17.9998C21.5523 17.9998 22 17.552 22 16.9998C22 16.4475 21.5522 15.9998 21 15.9998L21 17.9998ZM3 16C2.44772 16 2 16.4477 2 17C2 17.5523 2.44771 18 3 18L3 16ZM13 3.00001C13 2.44772 12.5523 2 12 2C11.4478 2 11 2.44771 11 2.99999L13 3.00001ZM12 10L11.2842 10.6983C11.4724 10.8912 11.7305 11 12 11C12.2695 11 12.5276 10.8912 12.7158 10.6983L12 10ZM7.71581 4.17626C7.33016 3.78092 6.69704 3.77308 6.30171 4.15874C5.90638 4.54439 5.89853 5.17751 6.28419 5.57284L7.71581 4.17626ZM17.7158 5.57275C18.1015 5.17742 18.0936 4.5443 17.6983 4.15865C17.303 3.773 16.6698 3.78085 16.2842 4.17618L17.7158 5.57275ZM21 15.9998L15.5443 16L15.5443 18L21 17.9998L21 15.9998ZM11.9999 19.5C10.5828 19.5 9.45556 18.3689 9.45556 17L7.45556 17C7.45556 19.4971 9.50206 21.5 11.9999 21.5L11.9999 19.5ZM9.45556 17C9.45556 15.6311 10.5828 14.5 11.9999 14.5L11.9999 12.5C9.50206 12.5 7.45556 14.5029 7.45556 17L9.45556 17ZM11.9999 14.5C13.4171 14.5 14.5443 15.6311 14.5443 17L16.5443 17C16.5443 14.5029 14.4978 12.5 11.9999 12.5L11.9999 14.5ZM14.5443 17C14.5443 18.3689 13.4171 19.5 11.9999 19.5L11.9999 21.5C14.4978 21.5 16.5443 19.4971 16.5443 17L14.5443 17ZM8.45556 16L3 16L3 18L8.45556 18L8.45556 16ZM11 2.99999L11 9.99999L13 10L13 3.00001L11 2.99999ZM6.28419 5.57284L11.2842 10.6983L12.7158 9.30171L7.71581 4.17626L6.28419 5.57284ZM12.7158 10.6983L17.7158 5.57275L16.2842 4.17618L11.2842 9.30171L12.7158 10.6983Z" fill="black"/>
</svg>
