<svg width="24" height="24" viewBox="0 0 24 24" fill="none" xmlns="http://www.w3.org/2000/svg">
<path d="M15.6725 5.22613L18.7933 8.37435M18.4471 17.1043V17.6608C18.4471 19.505 16.9651 21 15.137 21H6.3101C4.48198 21 3 19.505 3 17.6608V8.75629C3 6.91211 4.48198 5.4171 6.3101 5.4171H6.86178M7.8705 16.2449C7.8705 14.6708 7.8705 14.6708 7.8705 13.0967L17.2329 3.65202C18.0947 2.78266 19.4919 2.78266 20.3537 3.65202C21.2154 4.52138 21.2154 5.93088 20.3537 6.80024L10.9913 16.2449C9.43089 16.2449 9.43089 16.2449 7.8705 16.2449Z" stroke="black" stroke-width="2" stroke-linecap="round" stroke-linejoin="round"/>
</svg>
