<svg width="24" height="24" viewBox="0 0 24 24" fill="none" xmlns="http://www.w3.org/2000/svg">
<path d="M12 16.2426L11.2929 16.9497L12 17.6569L12.7071 16.9497L12 16.2426ZM10.9574 16.1999C10.9574 16.7522 11.4051 17.1999 11.9574 17.1999C12.5097 17.1999 12.9574 16.7522 12.9574 16.1999L10.9574 16.1999ZM12.9574 8.39993C12.9574 7.84765 12.5097 7.39993 11.9574 7.39993C11.4051 7.39993 10.9574 7.84765 10.9574 8.39993L12.9574 8.39993ZM7.05025 12.7071L11.2929 16.9497L12.7071 15.5355L8.46447 11.2929L7.05025 12.7071ZM12.7071 16.9497L16.9497 12.7071L15.5355 11.2929L11.2929 15.5355L12.7071 16.9497ZM12.9574 16.1999L12.9574 8.39993L10.9574 8.39993L10.9574 16.1999L12.9574 16.1999ZM20 12C20 16.4183 16.4183 20 12 20V22C17.5228 22 22 17.5228 22 12H20ZM12 20C7.58172 20 4 16.4183 4 12H2C2 17.5228 6.47715 22 12 22V20ZM4 12C4 7.58172 7.58172 4 12 4V2C6.47715 2 2 6.47715 2 12H4ZM12 4C16.4183 4 20 7.58172 20 12H22C22 6.47715 17.5228 2 12 2V4Z" fill="black"/>
</svg>
