<svg width="24" height="24" viewBox="0 0 24 24" fill="none" xmlns="http://www.w3.org/2000/svg">
<path d="M15 9H16V8L15 8L15 9ZM15.6468 9.70716C16.0373 9.31664 16.0373 8.68347 15.6468 8.29295C15.2562 7.90243 14.6231 7.90243 14.2326 8.29295L15.6468 9.70716ZM8.71712 13.8084C8.3266 14.1989 8.3266 14.8321 8.71712 15.2226C9.10764 15.6131 9.74081 15.6131 10.1313 15.2226L8.71712 13.8084ZM9 10L15 10L15 8L9 8L9 10ZM14 9V15H16V9H14ZM14.2326 8.29295L8.71712 13.8084L10.1313 15.2226L15.6468 9.70716L14.2326 8.29295ZM20 12C20 16.4183 16.4183 20 12 20V22C17.5228 22 22 17.5228 22 12H20ZM12 20C7.58172 20 4 16.4183 4 12H2C2 17.5228 6.47715 22 12 22V20ZM4 12C4 7.58172 7.58172 4 12 4V2C6.47715 2 2 6.47715 2 12H4ZM12 4C16.4183 4 20 7.58172 20 12H22C22 6.47715 17.5228 2 12 2V4Z" fill="black"/>
</svg>
