<svg width="24" height="24" viewBox="0 0 24 24" fill="none" xmlns="http://www.w3.org/2000/svg">
<path d="M12 7.5C12 7.5 9.5 6 7 6C4.5 6 2 7 2 7V18C2 18 4.5 17 7 17C9.5 17 12 18.5 12 18.5M12 7.5C12 7.5 14.5 6 17 6C19.5 6 22 7 22 7V18C22 18 19.5 17 17 17C14.5 17 12 18.5 12 18.5M12 7.5V18.5M19.5 9.27807C18.7365 9.12061 17.8682 9 17 9C16.1318 9 15.2635 9.18092 14.5 9.4171M19.5 11.7781C18.7365 11.6206 17.8682 11.5 17 11.5C16.1318 11.5 15.2635 11.6809 14.5 11.9171M19.5 14.2781C18.7365 14.1206 17.8682 14 17 14C16.1318 14 15.2635 14.1809 14.5 14.4171" stroke="black" stroke-width="2" stroke-linecap="round" stroke-linejoin="round"/>
</svg>
