<svg width="24" height="24" viewBox="0 0 24 24" fill="none" xmlns="http://www.w3.org/2000/svg">
<path d="M7.41319 11.5404L8.41319 11.5404L8.41319 11.5404L7.41319 11.5404ZM17.5869 8.12499L18.5869 8.12501V8.12499H17.5869ZM14.6254 12.4506L14.6254 11.4506L14.6254 11.4506L14.6254 12.4506ZM11.7387 12.4506L11.7387 11.4506L11.7387 11.4506L11.7387 12.4506ZM7.41311 15.4122L6.41311 15.4122L6.41311 15.4123L7.41311 15.4122ZM8.41318 16.1501C8.41318 13.3756 8.41319 13.1489 8.41319 11.5404L6.41319 11.5404C6.41319 13.1492 6.41318 13.3753 6.41318 16.1501L8.41318 16.1501ZM8.41319 11.5404L8.41305 7.82606L6.41305 7.82614L6.41319 11.5404L8.41319 11.5404ZM6 5.41305C6 4.63264 6.63264 4 7.41305 4L7.41305 2C5.52807 2 4 3.52807 4 5.41305L6 5.41305ZM7.41305 4C8.19345 4 8.8261 4.63264 8.8261 5.41305L10.8261 5.41305C10.8261 3.52808 9.29802 2 7.41305 2L7.41305 4ZM8.8261 5.41305C8.8261 6.19346 8.19345 6.8261 7.41305 6.8261L7.41305 8.8261C9.29802 8.8261 10.8261 7.29802 10.8261 5.41305L8.8261 5.41305ZM7.41305 6.8261C6.63264 6.8261 6 6.19346 6 5.41305L4 5.41305C4 7.29802 5.52807 8.8261 7.41305 8.8261L7.41305 6.8261ZM7.41331 19.9762C6.6329 19.9762 6.00026 19.3436 6.00026 18.5632L4.00026 18.5632C4.00026 20.4481 5.52833 21.9762 7.41331 21.9762L7.41331 19.9762ZM6.00026 18.5632C6.00026 17.7827 6.63283 17.1501 7.41318 17.1501L7.41318 15.1501C5.52815 15.1501 4.00026 16.6782 4.00026 18.5632L6.00026 18.5632ZM7.41318 17.1501C8.19367 17.1501 8.82636 17.7828 8.82636 18.5632L10.8264 18.5632C10.8264 16.6781 9.29807 15.1501 7.41318 15.1501L7.41318 17.1501ZM8.82636 18.5632C8.82636 19.3436 8.19371 19.9762 7.41331 19.9762L7.41331 21.9762C9.29828 21.9762 10.8264 20.4481 10.8264 18.5632L8.82636 18.5632ZM17.5869 6.82614C16.8065 6.82614 16.1739 6.19349 16.1739 5.41309L14.1739 5.41309C14.1739 7.29806 15.702 8.82614 17.5869 8.82614L17.5869 6.82614ZM16.1739 5.41309C16.1739 4.63268 16.8065 4.00004 17.5869 4.00004L17.5869 2.00004C15.702 2.00004 14.1739 3.52811 14.1739 5.41309L16.1739 5.41309ZM17.5869 4.00004C18.3674 4.00004 19 4.63268 19 5.41309L21 5.41309C21 3.52811 19.4719 2.00004 17.5869 2.00004L17.5869 4.00004ZM19 5.41309C19 6.19349 18.3674 6.82614 17.5869 6.82614L17.5869 8.82614C19.4719 8.82614 21 7.29806 21 5.41309L19 5.41309ZM16.5869 8.12498C16.5869 9.38811 16.2837 10.2417 15.9058 10.7521C15.541 11.2446 15.0899 11.4506 14.6254 11.4506L14.6254 13.4506C15.7695 13.4506 16.7992 12.9063 17.513 11.9423C18.2137 10.9961 18.5869 9.68691 18.5869 8.12501L16.5869 8.12498ZM16.5869 7.82614V8.12499H18.5869V7.82614H16.5869ZM11.7387 11.4506C10.1768 11.4506 8.86759 11.8239 7.9214 12.5245C6.95743 13.2384 6.41311 14.2681 6.41311 15.4122H8.41311C8.41311 14.9477 8.61907 14.4966 9.11164 14.1318C9.62198 13.7539 10.4756 13.4506 11.7387 13.4506L11.7387 11.4506ZM6.41311 15.4123L6.41318 16.1502L8.41318 16.1501L8.41311 15.4121L6.41311 15.4123ZM14.6254 11.4506L11.7387 11.4506L11.7387 13.4506L14.6254 13.4506L14.6254 11.4506Z" fill="black"/>
</svg>
