<svg width="24" height="24" viewBox="0 0 24 24" fill="none" xmlns="http://www.w3.org/2000/svg">
<path d="M6.75736 12L6.05025 11.2929L5.34315 12L6.05025 12.7071L6.75736 12ZM6.80007 10.9573C6.24778 10.9573 5.80007 11.4051 5.80007 11.9573C5.80007 12.5096 6.24778 12.9573 6.80007 12.9573L6.80007 10.9573ZM14.6001 12.9573C15.1524 12.9573 15.6001 12.5096 15.6001 11.9573C15.6001 11.4051 15.1524 10.9573 14.6001 10.9573L14.6001 12.9573ZM10.2929 7.05022L6.05025 11.2929L7.46447 12.7071L11.7071 8.46443L10.2929 7.05022ZM6.05025 12.7071L10.2929 16.9497L11.7071 15.5355L7.46447 11.2929L6.05025 12.7071ZM6.80007 12.9573L14.6001 12.9573L14.6001 10.9573L6.80007 10.9573L6.80007 12.9573ZM19 12C19 16.4183 15.4183 20 11 20V22C16.5228 22 21 17.5228 21 12H19ZM11 20C6.58172 20 3 16.4183 3 12H1C1 17.5228 5.47715 22 11 22V20ZM3 12C3 7.58172 6.58172 4 11 4V2C5.47715 2 1 6.47715 1 12H3ZM11 4C15.4183 4 19 7.58172 19 12H21C21 6.47715 16.5228 2 11 2V4Z" fill="black"/>
</svg>
