<svg width="24" height="24" viewBox="0 0 24 24" fill="none" xmlns="http://www.w3.org/2000/svg">
<path d="M9 8.99996L9 7.99996L8 7.99996V8.99996H9ZM9.76745 8.29291C9.37692 7.90239 8.74376 7.90239 8.35323 8.29291C7.96271 8.68344 7.96271 9.3166 8.35323 9.70713L9.76745 8.29291ZM13.8687 15.2226C14.2592 15.6131 14.8924 15.6131 15.2829 15.2226C15.6734 14.832 15.6734 14.1989 15.2829 13.8083L13.8687 15.2226ZM15 7.99996L9 7.99996L9 9.99996L15 9.99996L15 7.99996ZM8 8.99996V15H10V8.99996H8ZM8.35323 9.70713L13.8687 15.2226L15.2829 13.8083L9.76745 8.29291L8.35323 9.70713ZM20 12C20 16.4183 16.4183 20 12 20V22C17.5228 22 22 17.5228 22 12H20ZM12 20C7.58172 20 4 16.4183 4 12H2C2 17.5228 6.47715 22 12 22V20ZM4 12C4 7.58172 7.58172 4 12 4V2C6.47715 2 2 6.47715 2 12H4ZM12 4C16.4183 4 20 7.58172 20 12H22C22 6.47715 17.5228 2 12 2V4Z" fill="black"/>
</svg>
