<svg width="24" height="24" viewBox="0 0 24 24" fill="none" xmlns="http://www.w3.org/2000/svg">
<path d="M15.8032 3.70716C16.1937 3.31663 16.1937 2.68347 15.8032 2.29295C15.4126 1.90243 14.7795 1.90243 14.3889 2.29296L15.8032 3.70716ZM11.4336 6.66258L10.7265 5.95548C10.336 6.346 10.336 6.97916 10.7265 7.36969L11.4336 6.66258ZM14.389 11.0322C14.7795 11.4227 15.4127 11.4227 15.8032 11.0322C16.1937 10.6417 16.1937 10.0085 15.8032 9.61799L14.389 11.0322ZM14.7567 6.66258L14.7567 5.66258H14.7567V6.66258ZM18.391 10.1413L17.391 10.1413L17.391 10.1413L18.391 10.1413ZM7.21825 18.6249C7.21825 19.5135 6.49787 20.2339 5.60923 20.2339V22.2339C7.60244 22.2339 9.21825 20.6181 9.21825 18.6249H7.21825ZM5.60923 20.2339C4.72059 20.2339 4.00021 19.5135 4.00021 18.6249H2.00021C2.00021 20.6181 3.61602 22.2339 5.60923 22.2339V20.2339ZM4.00021 18.6249C4.00021 17.7363 4.72059 17.0159 5.60923 17.0159V15.0159C3.61602 15.0159 2.00021 16.6317 2.00021 18.6249H4.00021ZM5.60923 17.0159C6.49787 17.0159 7.21825 17.7363 7.21825 18.6249H9.21825C9.21825 16.6317 7.60244 15.0159 5.60923 15.0159V17.0159ZM14.3889 2.29296L10.7265 5.95548L12.1407 7.36968L15.8032 3.70716L14.3889 2.29296ZM10.7265 7.36969L14.389 11.0322L15.8032 9.61799L12.1407 5.95547L10.7265 7.36969ZM14.7567 7.66258C16.0946 7.6626 16.6655 8.03644 16.9413 8.378C17.2519 8.7626 17.391 9.34932 17.391 10.1413H19.391C19.391 9.19393 19.2402 8.04133 18.4973 7.12142C17.7196 6.15847 16.4733 5.66261 14.7567 5.66258L14.7567 7.66258ZM17.391 10.1413L17.391 15.9391L19.391 15.9391L19.391 10.1413L17.391 10.1413ZM20 18.5481C20 19.4368 19.2796 20.1572 18.391 20.1572V22.1572C20.3842 22.1572 22 20.5413 22 18.5481H20ZM18.391 20.1572C17.5023 20.1572 16.782 19.4368 16.782 18.5481H14.782C14.782 20.5413 16.3978 22.1572 18.391 22.1572V20.1572ZM16.782 18.5481C16.782 17.6595 17.5023 16.9391 18.391 16.9391V14.9391C16.3978 14.9391 14.782 16.5549 14.782 18.5481H16.782ZM18.391 16.9391C19.2796 16.9391 20 17.6595 20 18.5481H22C22 16.5549 20.3842 14.9391 18.391 14.9391V16.9391ZM11.4336 7.66258H14.7567V5.66258H11.4336V7.66258ZM6.60923 16.0159L6.60902 8.21802L4.60902 8.21807L4.60923 16.0159L6.60923 16.0159ZM4 5.60902C4 4.72038 4.72038 4 5.60902 4L5.60902 2C3.61581 2 2 3.61581 2 5.60902L4 5.60902ZM5.60902 4C6.49766 4 7.21804 4.72038 7.21804 5.60902L9.21804 5.60902C9.21804 3.61582 7.60223 2 5.60902 2L5.60902 4ZM7.21804 5.60902C7.21804 6.49766 6.49766 7.21804 5.60902 7.21804L5.60902 9.21804C7.60223 9.21804 9.21804 7.60223 9.21804 5.60902L7.21804 5.60902ZM5.60902 7.21804C4.72038 7.21804 4 6.49766 4 5.60902L2 5.60902C2 7.60223 3.61581 9.21804 5.60902 9.21804L5.60902 7.21804Z" fill="black"/>
</svg>
