<svg width="24" height="24" viewBox="0 0 24 24" fill="none" xmlns="http://www.w3.org/2000/svg">
<path d="M21 17.9998C21.5523 17.9998 22 17.552 22 16.9998C22 16.4475 21.5522 15.9998 21 15.9998L21 17.9998ZM3 16C2.44772 16 2 16.4477 2 17C2 17.5523 2.44771 18 3 18L3 16ZM11 10C11 10.5523 11.4478 11 12 11C12.5523 11 13 10.5523 13 9.99999L11 10ZM12 3L12.7158 2.30171C12.5276 2.10879 12.2695 2 12 2C11.7305 2 11.4724 2.10879 11.2842 2.30171L12 3ZM6.28419 7.42716C5.89853 7.82249 5.90638 8.45561 6.30171 8.84126C6.69704 9.22692 7.33016 9.21908 7.71581 8.82374L6.28419 7.42716ZM16.2842 8.82382C16.6698 9.21915 17.303 9.227 17.6983 8.84135C18.0936 8.4557 18.1015 7.82258 17.7158 7.42725L16.2842 8.82382ZM21 15.9998L15.5443 16L15.5443 18L21 17.9998L21 15.9998ZM11.9999 19.5C10.5828 19.5 9.45556 18.3689 9.45556 17L7.45556 17C7.45556 19.4971 9.50206 21.5 11.9999 21.5L11.9999 19.5ZM9.45556 17C9.45556 15.6311 10.5828 14.5 11.9999 14.5L11.9999 12.5C9.50206 12.5 7.45556 14.5029 7.45556 17L9.45556 17ZM11.9999 14.5C13.4171 14.5 14.5443 15.6311 14.5443 17L16.5443 17C16.5443 14.5029 14.4978 12.5 11.9999 12.5L11.9999 14.5ZM14.5443 17C14.5443 18.3689 13.4171 19.5 11.9999 19.5L11.9999 21.5C14.4978 21.5 16.5443 19.4971 16.5443 17L14.5443 17ZM8.45556 16L3 16L3 18L8.45556 18L8.45556 16ZM13 9.99999L13 2.99999L11 3.00001L11 10L13 9.99999ZM7.71581 8.82374L12.7158 3.69829L11.2842 2.30171L6.28419 7.42716L7.71581 8.82374ZM11.2842 3.69829L16.2842 8.82382L17.7158 7.42725L12.7158 2.30171L11.2842 3.69829Z" fill="black"/>
</svg>
