<svg width="24" height="24" viewBox="0 0 24 24" fill="none" xmlns="http://www.w3.org/2000/svg">
<path d="M4.09009 6.9375H21.0901L19.4381 14.3714C19.2348 15.2864 18.4231 15.9375 17.4857 15.9375H7.69443C6.75704 15.9375 5.94541 15.2864 5.74206 14.3714L4.09009 6.9375ZM4.09009 6.9375L3.21509 3H2M8.09009 19.9375C8.09009 20.4898 7.64238 20.9375 7.09009 20.9375C6.53781 20.9375 6.09009 20.4898 6.09009 19.9375C6.09009 19.3852 6.53781 18.9375 7.09009 18.9375C7.64238 18.9375 8.09009 19.3852 8.09009 19.9375ZM19.0901 19.9375C19.0901 20.4898 18.6424 20.9375 18.0901 20.9375C17.5378 20.9375 17.0901 20.4898 17.0901 19.9375C17.0901 19.3852 17.5378 18.9375 18.0901 18.9375C18.6424 18.9375 19.0901 19.3852 19.0901 19.9375Z" stroke="black" stroke-width="2" stroke-linecap="round" stroke-linejoin="round"/>
</svg>
