<svg width="24" height="24" viewBox="0 0 24 24" fill="none" xmlns="http://www.w3.org/2000/svg">
<path d="M15 15.4641C15.6081 15.113 16.113 14.608 16.4641 14C16.8152 13.3919 17 12.7021 17 12C17 11.2978 16.8152 10.608 16.4641 9.99997C16.113 9.39189 15.6081 8.88694 15 8.53587M17 18.9282C18.2162 18.226 19.2261 17.2161 19.9282 16C20.6303 14.7838 21 13.4043 21 12C21 10.5957 20.6303 9.21612 19.9282 7.99997C19.2261 6.78381 18.2162 5.77391 17 5.07177M7.30028 15.0286L10.2142 18.7309C10.8013 19.4769 12 19.0617 12 18.1125V5.88747C12 4.9382 10.8013 4.52306 10.2142 5.269L7.30028 8.97138C7.11068 9.21229 6.82104 9.35291 6.51447 9.35291H5C4.44772 9.35291 4 9.80063 4 10.3529V13.647C4 14.1993 4.44772 14.647 5 14.647H6.51447C6.82104 14.647 7.11068 14.7877 7.30028 15.0286Z" stroke="black" stroke-width="2" stroke-linecap="round" stroke-linejoin="round"/>
</svg>
