<svg width="24" height="24" viewBox="0 0 24 24" fill="none" xmlns="http://www.w3.org/2000/svg">
<path d="M16.2426 12L16.9497 12.7071L17.6569 12L16.9497 11.2929L16.2426 12ZM16.1999 12.9573C16.7522 12.9573 17.1999 12.5096 17.1999 11.9573C17.1999 11.4051 16.7522 10.9573 16.1999 10.9573L16.1999 12.9573ZM8.39993 10.9573C7.84765 10.9573 7.39993 11.4051 7.39993 11.9573C7.39993 12.5096 7.84765 12.9573 8.39993 12.9573L8.39993 10.9573ZM11.2929 8.46443L15.5355 12.7071L16.9497 11.2929L12.7071 7.05022L11.2929 8.46443ZM15.5355 11.2929L11.2929 15.5355L12.7071 16.9497L16.9497 12.7071L15.5355 11.2929ZM16.1999 10.9573L8.39993 10.9573L8.39993 12.9573L16.1999 12.9573L16.1999 10.9573ZM20 12C20 16.4183 16.4183 20 12 20V22C17.5228 22 22 17.5228 22 12H20ZM12 20C7.58172 20 4 16.4183 4 12H2C2 17.5228 6.47715 22 12 22V20ZM4 12C4 7.58172 7.58172 4 12 4V2C6.47715 2 2 6.47715 2 12H4ZM12 4C16.4183 4 20 7.58172 20 12H22C22 6.47715 17.5228 2 12 2V4Z" fill="black"/>
</svg>
