<svg width="24" height="24" viewBox="0 0 24 24" fill="none" xmlns="http://www.w3.org/2000/svg">
<path d="M21 11L21.0001 14C21.0001 15.1046 20.1047 16 19.0001 16H7.99979C7.37029 16 6.77782 16.2964 6.40011 16.8L4 20C4 16 4.00011 17.2405 4.00011 16V7C4.00011 5.89543 4.89554 5 6.00011 5H14M17 6C17 6.53043 17.2107 7.03914 17.5858 7.41421C17.9609 7.78929 18.4696 8 19 8C19.5304 8 20.0391 7.78929 20.4142 7.41421C20.7893 7.03914 21 6.53043 21 6C21 5.46957 20.7893 4.96086 20.4142 4.58579C20.0391 4.21071 19.5304 4 19 4C18.4696 4 17.9609 4.21071 17.5858 4.58579C17.2107 4.96086 17 5.46957 17 6Z" stroke="black" stroke-width="2" stroke-linecap="round" stroke-linejoin="round"/>
</svg>
