<svg width="24" height="24" viewBox="0 0 24 24" fill="none" xmlns="http://www.w3.org/2000/svg">
<path d="M15.0961 3L11.4336 6.66252M11.4336 6.66252L15.0961 10.325M11.4336 6.66252H14.7567C17.8112 6.66257 18.391 8.40192 18.391 10.1412L18.391 15.9391M18.391 15.9391C16.9501 15.9391 15.782 17.1072 15.782 18.5481C15.782 19.989 16.9501 21.1571 18.391 21.1571C19.8319 21.1571 21 19.989 21 18.5481C21 17.1072 19.8319 15.9391 18.391 15.9391ZM8.90395 21.1571L12.5664 17.4946M12.5664 17.4946L8.90389 13.8321M12.5664 17.4946H9.24328C6.18882 17.4945 5.60903 15.7552 5.60903 14.0159L5.60902 8.21804M5.60902 8.21804C7.04994 8.21804 8.21804 7.04995 8.21804 5.60902C8.21804 4.1681 7.04995 3 5.60902 3C4.1681 3 3 4.1681 3 5.60902C3 7.04995 4.1681 8.21804 5.60902 8.21804Z" stroke="black" stroke-width="2" stroke-linecap="round" stroke-linejoin="round"/>
</svg>
