<svg width="24" height="24" viewBox="0 0 24 24" fill="none" xmlns="http://www.w3.org/2000/svg">
<path d="M21.5563 5.63604C20.7206 4.80031 19.7284 4.13738 18.6365 3.68508C17.5446 3.23279 16.3742 3 15.1923 3C14.0104 3 12.8401 3.23279 11.7482 3.68509C10.6562 4.13738 9.6641 4.80031 8.82837 5.63604M18.7279 8.46447C18.2636 8.00017 17.7124 7.63188 17.1057 7.3806C16.4991 7.12933 15.8489 7 15.1923 7C14.5357 7 13.8855 7.12933 13.2789 7.3806C12.6723 7.63188 12.1211 8.00017 11.6568 8.46447M15.1923 10.8V11M13.1924 16.8V17M22 19V15C22 13.8954 21.1046 13 20 13H16.5M9.5 13H4C2.89543 13 2 13.8954 2 15V19C2 20.1046 2.89543 21 4 21H17.5M5 5L21.5 21.5" stroke="black" stroke-width="2" stroke-linecap="round" stroke-linejoin="round"/>
</svg>
