<svg width="24" height="24" viewBox="0 0 24 24" fill="none" xmlns="http://www.w3.org/2000/svg">
<path d="M21.3848 9.80761C20.1776 8.60045 18.7445 7.64288 17.1673 6.98957C15.59 6.33625 13.8996 6 12.1924 6C11.4398 6 10.6905 6.06534 9.95271 6.19438M18.5564 12.636C17.7206 11.8003 16.7285 11.1374 15.6365 10.6851C14.8988 10.3795 14.1253 10.1741 13.3366 10.073M8.65686 15.4645C9.12115 15.0002 9.67234 14.6319 10.279 14.3806C10.655 14.2248 11.0478 14.1159 11.4485 14.0556M12.1924 17.8V18M5 8.1709C4.28235 8.64754 3.61213 9.19549 3 9.80761M8.26681 10.9012C7.36401 11.3388 6.53959 11.9249 5.82843 12.636M3.00001 3L19.5 19.5" stroke="black" stroke-width="2" stroke-linecap="round"/>
</svg>
