<svg width="24" height="24" viewBox="0 0 24 24" fill="none" xmlns="http://www.w3.org/2000/svg">
<path d="M21.3848 9.80761C20.1776 8.60045 18.7445 7.64288 17.1673 6.98957C15.59 6.33625 13.8996 6 12.1924 6C10.4852 6 8.79474 6.33626 7.2175 6.98957C5.64027 7.64288 4.20716 8.60045 3 9.80761M18.5564 12.636C17.7206 11.8003 16.7285 11.1374 15.6365 10.6851C14.5446 10.2328 13.3743 10 12.1924 10C11.0105 10 9.84017 10.2328 8.74824 10.6851C7.65631 11.1374 6.66416 11.8003 5.82843 12.636M15.7279 15.4645C15.2636 15.0002 14.7124 14.6319 14.1058 14.3806C13.4992 14.1293 12.849 14 12.1924 14C11.5358 14 10.8856 14.1293 10.279 14.3806C9.67234 14.6319 9.12115 15.0002 8.65686 15.4645M12.1924 17.8V18" stroke="black" stroke-width="2" stroke-linecap="round"/>
</svg>
