<svg width="24" height="24" viewBox="0 0 24 24" fill="none" xmlns="http://www.w3.org/2000/svg">
<path d="M9 15C9 16.1046 10.3954 17 11.5 17H12M15 9C15 7.89543 13.6046 7 12.5 7H12M12 7H11.5C10.3954 7 9 7.89543 9 9V9.5C9 9.5 9 11.5 12 12C15 12.5 15 14.5 15 14.5V15C15 16.1046 13.6046 17 12.5 17H12M12 7V5.5M12 17V18.5M3 12C3 7.02944 7.02944 3 12 3C16.9706 3 21 7.02944 21 12C21 16.9706 16.9706 21 12 21C7.02944 21 3 16.9706 3 12Z" stroke="black" stroke-width="2" stroke-linecap="round" stroke-linejoin="round"/>
</svg>
