<svg width="24" height="24" viewBox="0 0 24 24" fill="none" xmlns="http://www.w3.org/2000/svg">
<path d="M12.5644 17.4363C14.4912 18.4355 16.6798 19 19.0001 19L19.0002 14.3334C17.9952 14.3334 17.0272 14.1745 16.1201 13.8805L12.5644 17.4363ZM12.5644 17.4363C9.99755 16.1052 7.89513 14.0028 6.56404 11.436M6.56404 11.436C5.5648 9.50909 5.00024 7.32046 5.00024 4.99997L9.66698 5.00004C9.66698 6.00511 9.82585 6.97307 10.1198 7.88019L6.56404 11.436ZM16.8298 10.7059C16.6026 9.85812 16.1563 9.08507 15.5357 8.46446C14.9151 7.84384 14.142 7.39752 13.2943 7.17036M19.7276 9.92944C19.3641 8.573 18.65 7.33612 17.657 6.34314C16.664 5.35015 15.4272 4.63604 14.0707 4.27258" stroke="black" stroke-width="2" stroke-linecap="round" stroke-linejoin="round"/>
</svg>
