<svg width="24" height="24" viewBox="0 0 24 24" fill="none" xmlns="http://www.w3.org/2000/svg">
<path d="M17.3333 16H19.1111C19.602 16 20 15.5523 20 15V10C20 9.44772 19.602 9 19.1111 9H4.88889C4.39797 9 4 9.44772 4 10V15C4 15.5523 4.39797 16 4.88889 16H6.66667M7.55556 9H16.4444C16.9354 9 17.3333 8.55228 17.3333 8V5C17.3333 4.44772 16.9354 4 16.4444 4H7.55556C7.06464 4 6.66667 4.44772 6.66667 5V8C6.66667 8.55228 7.06464 9 7.55556 9ZM7.55556 19H16.4444C16.9354 19 17.3333 18.5523 17.3333 18V14C17.3333 13.4477 16.9354 13 16.4444 13H7.55556C7.06464 13 6.66667 13.4477 6.66667 14V18C6.66667 18.5523 7.06464 19 7.55556 19Z" stroke="black" stroke-width="2" stroke-linecap="round" stroke-linejoin="round"/>
</svg>
