<svg width="24" height="24" viewBox="0 0 24 24" fill="none" xmlns="http://www.w3.org/2000/svg">
<path d="M8.66667 15.3333H2M2 15.3333L2 22M2 15.3333C2.00527 15.3482 2.58463 15.3691 2.58997 15.384C3.32932 17.4399 4.72189 19.1977 6.55525 20.3878C8.40184 21.5864 10.5924 22.1422 12.7871 21.969C14.9818 21.7957 17.0579 20.903 18.6935 19.4294C20.3291 17.9558 21.4328 15.9837 21.8332 13.8189M15.3333 8.66666H22M22 8.66666L22 2M22 8.66666C21.995 8.65291 21.3873 8.55233 21.3822 8.53861C20.6256 6.48783 19.2176 4.74103 17.3734 3.56611C15.5168 2.38333 13.3218 1.84622 11.1288 2.03808C8.93584 2.22994 6.86747 3.14005 5.24447 4.62725C3.62147 6.11446 2.53455 8.09564 2.15229 10.2635" stroke="black" stroke-width="2" stroke-linecap="round" stroke-linejoin="round"/>
</svg>
