<svg width="24" height="24" viewBox="0 0 24 24" fill="none" xmlns="http://www.w3.org/2000/svg">
<path d="M15.3333 15.3333H22M22 15.3333L22 22M22 15.3333C21.9947 15.3482 21.4154 15.3691 21.41 15.384C20.6707 17.4399 19.2781 19.1977 17.4447 20.3878C15.5982 21.5864 13.4076 22.1422 11.2129 21.969C9.01825 21.7957 6.94207 20.903 5.30646 19.4294C3.67086 17.9558 2.56724 15.9837 2.16681 13.8189M8.66667 8.66666H2M2 8.66666L2 2M2 8.66666C2.005 8.65291 2.61275 8.55233 2.61781 8.53861C3.37444 6.48783 4.78239 4.74103 6.62664 3.56611C8.48323 2.38333 10.6782 1.84622 12.8712 2.03808C15.0642 2.22994 17.1325 3.14005 18.7555 4.62725C20.3785 6.11446 21.4655 8.09564 21.8477 10.2635" stroke="black" stroke-width="2" stroke-linecap="round" stroke-linejoin="round"/>
</svg>
