<svg width="24" height="24" viewBox="0 0 24 24" fill="none" xmlns="http://www.w3.org/2000/svg">
<path d="M7.12762 16.8728L3.51493 20.4854M9.64174 19.387L7.57188 21.4568M4.61343 14.3586L2.54356 16.4285M17.3099 6.69034L16.6928 7.30746M9.49186 9.00826C13.1848 5.31536 17.0445 3.00155 19.7781 4.22172C20.9983 6.95529 18.6845 10.8151 14.9916 14.508C14.8283 14.6712 14.6633 14.8304 14.4969 14.9855L15.134 15.6226C16.0019 16.4904 16.0147 17.8847 15.1626 18.7367L14.2369 19.6624L4.33744 9.7629L5.26312 8.83723C6.11517 7.98517 7.50941 7.99796 8.37725 8.86579L9.01421 9.50276C9.16934 9.33645 9.32858 9.17154 9.49186 9.00826Z" stroke="black" stroke-width="2" stroke-linecap="round"/>
</svg>
