<svg width="24" height="24" viewBox="0 0 24 24" fill="none" xmlns="http://www.w3.org/2000/svg">
<path d="M6.87718 7.82677L7.17896 8.12855M17.2145 17.7855L20.8359 14.1641C21.5026 13.4975 21.5026 12.4166 20.8359 11.7499L14.0932 5.00721M5.26474 4.5072C6.47185 4.5072 7.67897 4.5072 8.88608 4.5072C9.33884 4.5072 9.77305 4.68706 10.0932 5.00721L16.8359 11.7499C17.5026 12.4166 17.5026 13.4975 16.8359 14.1641L13.2145 17.7855C12.5479 18.4521 11.467 18.4521 10.8003 17.7855L4.05762 11.0428C3.73747 10.7226 3.55762 10.2884 3.55762 9.83567L3.55762 6.21432C3.55762 5.2715 4.32192 4.5072 5.26474 4.5072Z" stroke="black" stroke-width="2" stroke-linecap="round"/>
</svg>
