<svg width="24" height="24" viewBox="0 0 24 24" fill="none" xmlns="http://www.w3.org/2000/svg">
<path d="M15.6396 2.64662H18.6396C19.7442 2.64662 20.6396 3.54205 20.6396 4.64662L20.6396 10.6466C20.6396 11.7512 19.7442 12.6466 18.6396 12.6466H15.6396M15.6396 2.64662L15.6396 12.6466M15.6396 2.64662L6.3339 2.64662C5.35622 2.64662 4.52184 3.35345 4.36111 4.31782L3.02778 12.3178C2.8246 13.5369 3.76469 14.6466 5.00057 14.6466L8.40828 14.6466C9.40218 14.6466 10.2453 15.3765 10.3877 16.3601L10.8112 19.2865C11.1442 21.5868 14.4719 21.5643 14.7737 19.2597L15.6396 12.6466" stroke="black" stroke-width="2" stroke-linejoin="round"/>
</svg>
