<svg width="24" height="24" viewBox="0 0 24 24" fill="none" xmlns="http://www.w3.org/2000/svg">
<path d="M17 15.4641C17.6081 15.113 18.113 14.608 18.4641 14C18.8152 13.3919 19 12.7021 19 12C19 11.2978 18.8152 10.608 18.4641 9.99997C18.113 9.39189 17.6081 8.88694 17 8.53587M9.30028 15.0286L12.2142 18.7309C12.8013 19.4769 14 19.0617 14 18.1125V5.88747C14 4.9382 12.8013 4.52306 12.2142 5.269L9.30028 8.97138C9.11068 9.21229 8.82104 9.35291 8.51447 9.35291H7C6.44772 9.35291 6 9.80063 6 10.3529V13.647C6 14.1993 6.44772 14.647 7 14.647H8.51447C8.82104 14.647 9.11068 14.7877 9.30028 15.0286Z" stroke="black" stroke-width="2" stroke-linecap="round" stroke-linejoin="round"/>
</svg>
