<svg width="956" height="320" viewBox="0 0 956 320" fill="none" xmlns="http://www.w3.org/2000/svg">
<path d="M-2 0H968" stroke="white" stroke-opacity="0.05"/>
<path d="M-2 10H968" stroke="white" stroke-opacity="0.05"/>
<path d="M-2 20H968" stroke="white" stroke-opacity="0.05"/>
<path d="M-2 30H968" stroke="white" stroke-opacity="0.05"/>
<path d="M-2 40H968" stroke="white" stroke-opacity="0.05"/>
<path d="M-2 50H968" stroke="white" stroke-opacity="0.05"/>
<path d="M-2 60H968" stroke="white" stroke-opacity="0.05"/>
<path d="M-2 70H968" stroke="white" stroke-opacity="0.05"/>
<path d="M-2 80H968" stroke="white" stroke-opacity="0.05"/>
<path d="M-2 90H968" stroke="white" stroke-opacity="0.05"/>
<path d="M-2 100H968" stroke="white" stroke-opacity="0.05"/>
<path d="M-2 110H968" stroke="white" stroke-opacity="0.05"/>
<path d="M-2 120H968" stroke="white" stroke-opacity="0.05"/>
<path d="M-2 130H968" stroke="white" stroke-opacity="0.05"/>
<path d="M-2 140H968" stroke="white" stroke-opacity="0.05"/>
<path d="M-2 150H968" stroke="white" stroke-opacity="0.05"/>
<path d="M-2 160H968" stroke="white" stroke-opacity="0.05"/>
<path d="M-2 170H968" stroke="white" stroke-opacity="0.05"/>
<path d="M-2 180H968" stroke="white" stroke-opacity="0.05"/>
<path d="M-2 190H968" stroke="white" stroke-opacity="0.05"/>
<path d="M-2 200H968" stroke="white" stroke-opacity="0.05"/>
<path d="M-2 210H968" stroke="white" stroke-opacity="0.05"/>
<path d="M-2 220H968" stroke="white" stroke-opacity="0.05"/>
<path d="M-2 230H968" stroke="white" stroke-opacity="0.05"/>
<path d="M-2 240H968" stroke="white" stroke-opacity="0.05"/>
<path d="M-2 250H968" stroke="white" stroke-opacity="0.05"/>
<path d="M-2 260H968" stroke="white" stroke-opacity="0.05"/>
<path d="M-2 270H968" stroke="white" stroke-opacity="0.05"/>
<path d="M-2 280H968" stroke="white" stroke-opacity="0.05"/>
<path d="M-2 290H968" stroke="white" stroke-opacity="0.05"/>
<path d="M-2 300H968" stroke="white" stroke-opacity="0.05"/>
<path d="M-2 310H968" stroke="white" stroke-opacity="0.05"/>
<path d="M8 -20V339" stroke="white" stroke-opacity="0.05"/>
<path d="M18 -20V339" stroke="white" stroke-opacity="0.05"/>
<path d="M28 -20V339" stroke="white" stroke-opacity="0.05"/>
<path d="M38 -20V339" stroke="white" stroke-opacity="0.05"/>
<path d="M48 -20V339" stroke="white" stroke-opacity="0.05"/>
<path d="M58 -20V339" stroke="white" stroke-opacity="0.05"/>
<path d="M68 -20V339" stroke="white" stroke-opacity="0.05"/>
<path d="M78 -20V339" stroke="white" stroke-opacity="0.05"/>
<path d="M88 -20V339" stroke="white" stroke-opacity="0.05"/>
<path d="M98 -20V339" stroke="white" stroke-opacity="0.05"/>
<path d="M108 -20V339" stroke="white" stroke-opacity="0.05"/>
<path d="M118 -20V339" stroke="white" stroke-opacity="0.05"/>
<path d="M128 -20V339" stroke="white" stroke-opacity="0.05"/>
<path d="M138 -20V339" stroke="white" stroke-opacity="0.05"/>
<path d="M148 -20V339" stroke="white" stroke-opacity="0.05"/>
<path d="M158 -20V339" stroke="white" stroke-opacity="0.05"/>
<path d="M168 -20V339" stroke="white" stroke-opacity="0.05"/>
<path d="M178 -20V339" stroke="white" stroke-opacity="0.05"/>
<path d="M188 -20V339" stroke="white" stroke-opacity="0.05"/>
<path d="M198 -20V339" stroke="white" stroke-opacity="0.05"/>
<path d="M208 -20V339" stroke="white" stroke-opacity="0.05"/>
<path d="M218 -20V339" stroke="white" stroke-opacity="0.05"/>
<path d="M228 -20V339" stroke="white" stroke-opacity="0.05"/>
<path d="M238 -20V339" stroke="white" stroke-opacity="0.05"/>
<path d="M248 -20V339" stroke="white" stroke-opacity="0.05"/>
<path d="M258 -20V339" stroke="white" stroke-opacity="0.05"/>
<path d="M268 -20V339" stroke="white" stroke-opacity="0.05"/>
<path d="M278 -20V339" stroke="white" stroke-opacity="0.05"/>
<path d="M288 -20V339" stroke="white" stroke-opacity="0.05"/>
<path d="M298 -20V339" stroke="white" stroke-opacity="0.05"/>
<path d="M308 -20V339" stroke="white" stroke-opacity="0.05"/>
<path d="M318 -20V339" stroke="white" stroke-opacity="0.05"/>
<path d="M328 -20V339" stroke="white" stroke-opacity="0.05"/>
<path d="M338 -20V339" stroke="white" stroke-opacity="0.05"/>
<path d="M348 -20V339" stroke="white" stroke-opacity="0.05"/>
<path d="M358 -20V339" stroke="white" stroke-opacity="0.05"/>
<path d="M368 -20V339" stroke="white" stroke-opacity="0.05"/>
<path d="M378 -20V339" stroke="white" stroke-opacity="0.05"/>
<path d="M388 -20V339" stroke="white" stroke-opacity="0.05"/>
<path d="M398 -20V339" stroke="white" stroke-opacity="0.05"/>
<path d="M408 -20V339" stroke="white" stroke-opacity="0.05"/>
<path d="M418 -20V339" stroke="white" stroke-opacity="0.05"/>
<path d="M428 -20V339" stroke="white" stroke-opacity="0.05"/>
<path d="M438 -20V339" stroke="white" stroke-opacity="0.05"/>
<path d="M448 -20V339" stroke="white" stroke-opacity="0.05"/>
<path d="M458 -20V339" stroke="white" stroke-opacity="0.05"/>
<path d="M468 -20V339" stroke="white" stroke-opacity="0.05"/>
<path d="M478 -20V339" stroke="white" stroke-opacity="0.05"/>
<path d="M488 -20V339" stroke="white" stroke-opacity="0.05"/>
<path d="M498 -20V339" stroke="white" stroke-opacity="0.05"/>
<path d="M508 -20V339" stroke="white" stroke-opacity="0.05"/>
<path d="M518 -20V339" stroke="white" stroke-opacity="0.05"/>
<path d="M528 -20V339" stroke="white" stroke-opacity="0.05"/>
<path d="M538 -20V339" stroke="white" stroke-opacity="0.05"/>
<path d="M548 -20V339" stroke="white" stroke-opacity="0.05"/>
<path d="M558 -20V339" stroke="white" stroke-opacity="0.05"/>
<path d="M568 -20V339" stroke="white" stroke-opacity="0.05"/>
<path d="M578 -20V339" stroke="white" stroke-opacity="0.05"/>
<path d="M588 -20V339" stroke="white" stroke-opacity="0.05"/>
<path d="M598 -20V339" stroke="white" stroke-opacity="0.05"/>
<path d="M608 -20V339" stroke="white" stroke-opacity="0.05"/>
<path d="M618 -20V339" stroke="white" stroke-opacity="0.05"/>
<path d="M628 -20V339" stroke="white" stroke-opacity="0.05"/>
<path d="M638 -20V339" stroke="white" stroke-opacity="0.05"/>
<path d="M648 -20V339" stroke="white" stroke-opacity="0.05"/>
<path d="M658 -20V339" stroke="white" stroke-opacity="0.05"/>
<path d="M668 -20V339" stroke="white" stroke-opacity="0.05"/>
<path d="M678 -20V339" stroke="white" stroke-opacity="0.05"/>
<path d="M688 -20V339" stroke="white" stroke-opacity="0.05"/>
<path d="M698 -20V339" stroke="white" stroke-opacity="0.05"/>
<path d="M708 -20V339" stroke="white" stroke-opacity="0.05"/>
<path d="M718 -20V339" stroke="white" stroke-opacity="0.05"/>
<path d="M728 -20V339" stroke="white" stroke-opacity="0.05"/>
<path d="M738 -20V339" stroke="white" stroke-opacity="0.05"/>
<path d="M748 -20V339" stroke="white" stroke-opacity="0.05"/>
<path d="M758 -20V339" stroke="white" stroke-opacity="0.05"/>
<path d="M768 -20V339" stroke="white" stroke-opacity="0.05"/>
<path d="M778 -20V339" stroke="white" stroke-opacity="0.05"/>
<path d="M788 -20V339" stroke="white" stroke-opacity="0.05"/>
<path d="M798 -20V339" stroke="white" stroke-opacity="0.05"/>
<path d="M808 -20V339" stroke="white" stroke-opacity="0.05"/>
<path d="M818 -20V339" stroke="white" stroke-opacity="0.05"/>
<path d="M828 -20V339" stroke="white" stroke-opacity="0.05"/>
<path d="M838 -20V339" stroke="white" stroke-opacity="0.05"/>
<path d="M848 -20V339" stroke="white" stroke-opacity="0.05"/>
<path d="M858 -20V339" stroke="white" stroke-opacity="0.05"/>
<path d="M868 -20V339" stroke="white" stroke-opacity="0.05"/>
<path d="M878 -20V339" stroke="white" stroke-opacity="0.05"/>
<path d="M888 -20V339" stroke="white" stroke-opacity="0.05"/>
<path d="M898 -20V339" stroke="white" stroke-opacity="0.05"/>
<path d="M908 -20V339" stroke="white" stroke-opacity="0.05"/>
<path d="M918 -20V339" stroke="white" stroke-opacity="0.05"/>
<path d="M928 -20V339" stroke="white" stroke-opacity="0.05"/>
<path d="M938 -20V339" stroke="white" stroke-opacity="0.05"/>
<path d="M948 -20V339" stroke="white" stroke-opacity="0.05"/>
</svg>
