<svg width="24" height="24" viewBox="0 0 24 24" fill="none" xmlns="http://www.w3.org/2000/svg">
<path d="M12 20.9973C9.61305 20.9973 7.32387 20.0491 5.63604 18.3613C3.94821 16.6734 3 14.3843 3 11.9973C3 9.61037 3.94821 7.32118 5.63604 5.63335C7.32387 3.94553 9.61305 2.99731 12 2.99731C16.97 2.99731 21 6.57931 21 10.9973C21 12.0573 20.526 13.0753 19.682 13.8253C18.838 14.5753 17.693 14.9973 16.5 14.9973H14C13.5539 14.9901 13.1181 15.1323 12.7621 15.4013C12.4061 15.6703 12.1503 16.0506 12.0353 16.4817C11.9203 16.9129 11.9528 17.3701 12.1276 17.7806C12.3025 18.1911 12.6095 18.5314 13 18.7473C13.1997 18.9316 13.3366 19.1737 13.3915 19.4398C13.4465 19.7058 13.4167 19.9824 13.3064 20.2307C13.196 20.479 13.0107 20.6864 12.7764 20.8239C12.5421 20.9614 12.2705 21.0221 12 20.9973Z" stroke="black" stroke-width="2" stroke-linecap="round" stroke-linejoin="round"/>
<path d="M7.5 10.4973C7.5 10.7625 7.60536 11.0169 7.79289 11.2044C7.98043 11.392 8.23478 11.4973 8.5 11.4973C8.76522 11.4973 9.01957 11.392 9.20711 11.2044C9.39464 11.0169 9.5 10.7625 9.5 10.4973C9.5 10.2321 9.39464 9.97774 9.20711 9.79021C9.01957 9.60267 8.76522 9.49731 8.5 9.49731C8.23478 9.49731 7.98043 9.60267 7.79289 9.79021C7.60536 9.97774 7.5 10.2321 7.5 10.4973Z" stroke="black" stroke-width="2" stroke-linecap="round" stroke-linejoin="round"/>
<path d="M11.5 7.49731C11.5 7.76253 11.6054 8.01688 11.7929 8.20442C11.9804 8.39196 12.2348 8.49731 12.5 8.49731C12.7652 8.49731 13.0196 8.39196 13.2071 8.20442C13.3946 8.01688 13.5 7.76253 13.5 7.49731C13.5 7.2321 13.3946 6.97774 13.2071 6.79021C13.0196 6.60267 12.7652 6.49731 12.5 6.49731C12.2348 6.49731 11.9804 6.60267 11.7929 6.79021C11.6054 6.97774 11.5 7.2321 11.5 7.49731Z" stroke="black" stroke-width="2" stroke-linecap="round" stroke-linejoin="round"/>
<path d="M15.5 10.4973C15.5 10.7625 15.6054 11.0169 15.7929 11.2044C15.9804 11.392 16.2348 11.4973 16.5 11.4973C16.7652 11.4973 17.0196 11.392 17.2071 11.2044C17.3946 11.0169 17.5 10.7625 17.5 10.4973C17.5 10.2321 17.3946 9.97774 17.2071 9.79021C17.0196 9.60267 16.7652 9.49731 16.5 9.49731C16.2348 9.49731 15.9804 9.60267 15.7929 9.79021C15.6054 9.97774 15.5 10.2321 15.5 10.4973Z" stroke="black" stroke-width="2" stroke-linecap="round" stroke-linejoin="round"/>
</svg>
