<svg width="24" height="24" viewBox="0 0 24 24" fill="none" xmlns="http://www.w3.org/2000/svg">
<path d="M15.0001 17.5C15.0001 17.8283 14.9225 18.1534 14.7717 18.4567C14.6209 18.76 14.4 19.0356 14.1214 19.2678C13.8428 19.4999 13.5121 19.6841 13.1481 19.8097C12.7841 19.9353 12.394 20 12.0001 20C11.6061 20 11.216 19.9353 10.852 19.8097C10.488 19.6841 10.1573 19.4999 9.87875 19.2678C9.60018 19.0356 9.3792 18.76 9.22844 18.4567C9.07767 18.1534 9.00007 17.8283 9.00007 17.5M19.0001 5.0625C19.0001 6.72235 19.3533 8.36594 20.0396 9.89944C20.2247 10.3128 20.4329 10.716 20.6632 11.1075M5.00007 5.0625C5.00007 6.72235 4.64683 8.36594 3.96051 9.89944C3.7755 10.3128 3.56726 10.716 3.33691 11.1075M16.0001 7.0625C16.0001 6.529 15.8966 6.00073 15.6956 5.50785C15.4946 5.01496 15.1999 4.56712 14.8285 4.18988C14.4571 3.81264 14.0161 3.5134 13.5308 3.30924C13.0455 3.10508 12.5254 3 12.0001 3C11.4748 3 10.9546 3.10508 10.4693 3.30924C9.98404 3.5134 9.54308 3.81264 9.17165 4.18988C8.80021 4.56712 8.50558 5.01496 8.30456 5.50785C8.10354 6.00073 8.00008 6.52901 8.00008 7.0625C8.00007 8.72235 7.64683 10.3659 6.96051 11.8994C6.27419 13.4329 5.26823 14.8263 4.00007 16H20.0001C18.7319 14.8263 17.726 13.4329 17.0396 11.8994C16.3533 10.3659 16.0001 8.72235 16.0001 7.0625Z" stroke="black" stroke-width="2" stroke-linecap="round" stroke-linejoin="round"/>
</svg>
