<svg width="24" height="24" viewBox="0 0 24 24" fill="none" xmlns="http://www.w3.org/2000/svg">
<path d="M8.85704 10.5777L14.107 7.54663M8.85703 13.6088L14.107 16.6399M20.232 6C20.232 7.65685 18.8889 9 17.232 9C15.5752 9 14.232 7.65685 14.232 6C14.232 4.34315 15.5752 3 17.232 3C18.8889 3 20.232 4.34315 20.232 6ZM20.232 18C20.232 19.6569 18.8889 21 17.232 21C15.5752 21 14.232 19.6569 14.232 18C14.232 16.3431 15.5752 15 17.232 15C18.8889 15 20.232 16.3431 20.232 18ZM8.99994 12.1339C8.99994 13.7908 7.65679 15.1339 5.99994 15.1339C4.34308 15.1339 2.99994 13.7908 2.99994 12.1339C2.99994 10.477 4.34308 9.1339 5.99994 9.1339C7.65679 9.1339 8.99994 10.477 8.99994 12.1339Z" stroke="black" stroke-width="2" stroke-linecap="round"/>
</svg>
