<svg width="24" height="24" viewBox="0 0 24 24" fill="none" xmlns="http://www.w3.org/2000/svg">
<path d="M15 11H18M15 14H18M11.0415 15.7864C10.3063 15.2833 9.43843 15.0097 8.54767 15.0003C7.65691 14.9908 6.78339 15.246 6.03776 15.7334M4.5 18H19.5C20.0523 18 20.5 17.5523 20.5 17V8C20.5 7.44772 20.0523 7 19.5 7H4.5C3.94772 7 3.5 7.44771 3.5 8V17C3.5 17.5523 3.94772 18 4.5 18ZM10 11C10 11.8284 9.32843 12.5 8.5 12.5C7.67157 12.5 7 11.8284 7 11C7 10.1716 7.67157 9.5 8.5 9.5C9.32843 9.5 10 10.1716 10 11Z" stroke="black" stroke-width="2" stroke-linecap="round" stroke-linejoin="round"/>
</svg>
