<svg width="24" height="24" viewBox="0 0 24 24" fill="none" xmlns="http://www.w3.org/2000/svg">
<path d="M18 18C19.6569 18 21 16.6569 21 15C21 13.3431 19.6569 12 18 12H16.9C16.9656 11.6769 17 11.3425 17 11C17 8.23858 14.7614 6 12 6C9.58104 6 7.56329 7.71776 7.10002 10H7C4.79086 10 3 11.7909 3 14C3 15.9803 4.43899 17.6244 6.32833 17.9439M9 16.2461L12.1095 13M12.1095 13L15.3069 16.272M12.1095 13L12.1095 21.272" stroke="black" stroke-width="2" stroke-linecap="round" stroke-linejoin="round"/>
</svg>
